<svg width="263" height="46" viewBox="0 0 263 46" fill="none" xmlns="http://www.w3.org/2000/svg">
<path d="M22.1073 2.35898H50.3547L29.5872 29.4552H1.33984L22.1073 2.35898Z" fill="#007AFF"/>
<path d="M23.3445 31.9665L15.3008 42.4615H44.8881L65.6556 15.3653H43.8183L31.0945 31.9665H23.3445Z" fill="#312ECB"/>
<path d="M120.561 15.5724H114.962C114.859 14.848 114.651 14.2045 114.335 13.642C114.02 13.071 113.615 12.5852 113.121 12.1846C112.626 11.7841 112.055 11.4773 111.408 11.2642C110.768 11.0511 110.074 10.9446 109.324 10.9446C107.969 10.9446 106.788 11.2812 105.783 11.9545C104.777 12.6193 103.997 13.5909 103.443 14.8693C102.889 16.1392 102.612 17.6818 102.612 19.4971C102.612 21.3636 102.889 22.9318 103.443 24.2017C104.006 25.4716 104.79 26.4304 105.795 27.0781C106.801 27.7258 107.964 28.0497 109.286 28.0497C110.027 28.0497 110.713 27.9517 111.344 27.7557C111.983 27.5596 112.55 27.2741 113.044 26.8991C113.538 26.5156 113.947 26.0511 114.271 25.5057C114.604 24.9602 114.834 24.3381 114.962 23.6392L120.561 23.6648C120.416 24.8665 120.054 26.0256 119.474 27.142C118.903 28.25 118.132 29.2429 117.161 30.1207C116.197 30.99 115.047 31.6804 113.709 32.1917C112.379 32.6946 110.875 32.946 109.196 32.946C106.861 32.946 104.773 32.4176 102.932 31.3608C101.099 30.304 99.6506 28.7741 98.5852 26.7713C97.5284 24.7684 97 22.3437 97 19.4971C97 16.642 97.5369 14.2131 98.6108 12.2102C99.6847 10.2074 101.142 8.6818 102.983 7.63351C104.824 6.57669 106.895 6.04828 109.196 6.04828C110.713 6.04828 112.119 6.26135 113.415 6.68748C114.719 7.11362 115.874 7.73578 116.879 8.55396C117.885 9.36362 118.703 10.3565 119.334 11.5327C119.973 12.7088 120.382 14.0554 120.561 15.5724Z" fill="white"/>
<path d="M133.3 32.9716C131.315 32.9716 129.597 32.5497 128.148 31.7059C126.708 30.8537 125.596 29.669 124.812 28.152C124.028 26.6264 123.636 24.8579 123.636 22.8466C123.636 20.8182 124.028 19.0454 124.812 17.5284C125.596 16.0028 126.708 14.8182 128.148 13.9744C129.597 13.1221 131.315 12.696 133.3 12.696C135.286 12.696 136.999 13.1221 138.44 13.9744C139.888 14.8182 141.005 16.0028 141.789 17.5284C142.573 19.0454 142.965 20.8182 142.965 22.8466C142.965 24.8579 142.573 26.6264 141.789 28.152C141.005 29.669 139.888 30.8537 138.44 31.7059C136.999 32.5497 135.286 32.9716 133.3 32.9716ZM133.326 28.7528C134.229 28.7528 134.984 28.4971 135.589 27.9858C136.194 27.4659 136.65 26.7585 136.957 25.8636C137.272 24.9687 137.43 23.9503 137.43 22.8082C137.43 21.6662 137.272 20.6477 136.957 19.7528C136.65 18.8579 136.194 18.1506 135.589 17.6307C134.984 17.1108 134.229 16.8508 133.326 16.8508C132.414 16.8508 131.647 17.1108 131.025 17.6307C130.411 18.1506 129.947 18.8579 129.631 19.7528C129.325 20.6477 129.171 21.6662 129.171 22.8082C129.171 23.9503 129.325 24.9687 129.631 25.8636C129.947 26.7585 130.411 27.4659 131.025 27.9858C131.647 28.4971 132.414 28.7528 133.326 28.7528Z" fill="white"/>
<path d="M146.506 32.5881V12.9517H151.697V16.4162H151.927C152.336 15.2656 153.018 14.3579 153.972 13.6932C154.927 13.0284 156.069 12.696 157.398 12.696C158.745 12.696 159.891 13.0327 160.837 13.7059C161.783 14.3707 162.414 15.2741 162.729 16.4162H162.934C163.335 15.2912 164.059 14.392 165.107 13.7187C166.164 13.0369 167.413 12.696 168.853 12.696C170.685 12.696 172.173 13.2798 173.315 14.4474C174.465 15.6065 175.04 17.2514 175.04 19.3821V32.5881H169.607V20.4559C169.607 19.365 169.317 18.5469 168.738 18.0014C168.158 17.4559 167.434 17.1832 166.565 17.1832C165.576 17.1832 164.805 17.4986 164.251 18.1292C163.697 18.7514 163.42 19.5738 163.42 20.5966V32.5881H158.14V20.3409C158.14 19.3778 157.863 18.6108 157.309 18.0398C156.763 17.4687 156.043 17.1832 155.148 17.1832C154.543 17.1832 153.998 17.3366 153.512 17.6434C153.035 17.9417 152.656 18.3636 152.374 18.9091C152.093 19.446 151.952 20.0767 151.952 20.8011V32.5881H146.506Z" fill="white"/>
<path d="M179.342 39.9517V12.9517H184.712V16.25H184.955C185.193 15.7216 185.538 15.1846 185.99 14.6392C186.45 14.0852 187.047 13.625 187.78 13.2585C188.521 12.8835 189.442 12.696 190.541 12.696C191.973 12.696 193.294 13.071 194.504 13.821C195.714 14.5625 196.682 15.6832 197.406 17.1832C198.131 18.6747 198.493 20.5454 198.493 22.7954C198.493 24.9858 198.139 26.8352 197.432 28.3437C196.733 29.8437 195.778 30.9815 194.568 31.7571C193.366 32.5241 192.02 32.9077 190.528 32.9077C189.472 32.9077 188.572 32.7329 187.831 32.3835C187.098 32.0341 186.497 31.5952 186.028 31.0667C185.56 30.5298 185.202 29.9886 184.955 29.4432H184.788V39.9517H179.342ZM184.673 22.7699C184.673 23.9375 184.835 24.9559 185.159 25.8253C185.483 26.6946 185.952 27.3721 186.565 27.8579C187.179 28.3352 187.925 28.5738 188.803 28.5738C189.689 28.5738 190.439 28.331 191.053 27.8452C191.666 27.3508 192.131 26.669 192.446 25.7997C192.77 24.9219 192.932 23.9119 192.932 22.7699C192.932 21.6363 192.774 20.6392 192.459 19.7784C192.143 18.9176 191.679 18.2443 191.065 17.7585C190.452 17.2727 189.697 17.0298 188.803 17.0298C187.916 17.0298 187.166 17.2642 186.553 17.7329C185.947 18.2017 185.483 18.8665 185.159 19.7273C184.835 20.5881 184.673 21.6023 184.673 22.7699Z" fill="white"/>
<path d="M207.723 32.9588C206.47 32.9588 205.354 32.7415 204.374 32.3068C203.393 31.8636 202.618 31.2116 202.047 30.3508C201.484 29.4815 201.203 28.3991 201.203 27.1037C201.203 26.0128 201.403 25.0966 201.804 24.3551C202.205 23.6136 202.75 23.017 203.44 22.5653C204.131 22.1136 204.915 21.7727 205.793 21.5426C206.679 21.3125 207.608 21.1506 208.58 21.0568C209.722 20.9375 210.642 20.8267 211.341 20.7244C212.04 20.6136 212.547 20.4517 212.862 20.2386C213.178 20.0256 213.335 19.7102 213.335 19.2926V19.2159C213.335 18.4062 213.08 17.7798 212.568 17.3366C212.065 16.8934 211.349 16.6719 210.42 16.6719C209.44 16.6719 208.661 16.8892 208.081 17.3238C207.501 17.75 207.118 18.2869 206.93 18.9346L201.893 18.5256C202.149 17.3324 202.652 16.3011 203.402 15.4318C204.152 14.554 205.119 13.8807 206.304 13.4119C207.497 12.9346 208.878 12.696 210.446 12.696C211.537 12.696 212.581 12.8238 213.578 13.0795C214.584 13.3352 215.474 13.7315 216.25 14.2684C217.034 14.8054 217.652 15.4957 218.104 16.3395C218.555 17.1747 218.781 18.1761 218.781 19.3437V32.5881H213.616V29.865H213.463C213.148 30.4787 212.726 31.0199 212.197 31.4886C211.669 31.9488 211.034 32.3111 210.293 32.5753C209.551 32.8309 208.695 32.9588 207.723 32.9588ZM209.283 29.2003C210.084 29.2003 210.791 29.0426 211.405 28.7273C212.018 28.4034 212.5 27.9687 212.849 27.4233C213.199 26.8778 213.374 26.2599 213.374 25.5696V23.4858C213.203 23.5966 212.969 23.6988 212.67 23.7926C212.381 23.8778 212.053 23.9588 211.686 24.0355C211.32 24.1037 210.953 24.1676 210.587 24.2273C210.22 24.2784 209.888 24.3253 209.589 24.3679C208.95 24.4616 208.392 24.6108 207.915 24.8153C207.438 25.0199 207.067 25.2969 206.803 25.6463C206.538 25.9872 206.406 26.4133 206.406 26.9247C206.406 27.6662 206.675 28.2329 207.212 28.625C207.757 29.0085 208.447 29.2003 209.283 29.2003Z" fill="white"/>
<path d="M228.452 21.2358V32.5881H223.006V12.9517H228.197V16.4162H228.427C228.862 15.2741 229.59 14.3707 230.613 13.7059C231.636 13.0327 232.876 12.696 234.333 12.696C235.697 12.696 236.886 12.9943 237.9 13.5909C238.914 14.1875 239.702 15.0398 240.265 16.1477C240.827 17.2471 241.109 18.5596 241.109 20.0852V32.5881H235.663V21.0568C235.671 19.8551 235.364 18.9176 234.742 18.2443C234.12 17.5625 233.264 17.2216 232.173 17.2216C231.44 17.2216 230.792 17.3792 230.229 17.6946C229.675 18.0099 229.241 18.4702 228.925 19.0753C228.619 19.6719 228.461 20.392 228.452 21.2358Z" fill="white"/>
<path d="M248.06 39.9517C247.37 39.9517 246.722 39.8963 246.117 39.7855C245.52 39.6832 245.026 39.5511 244.634 39.3892L245.861 35.3238C246.5 35.5199 247.076 35.6264 247.587 35.6434C248.107 35.6605 248.554 35.5412 248.929 35.2855C249.313 35.0298 249.624 34.5952 249.863 33.9815L250.182 33.1506L243.138 12.9517H248.865L252.931 27.3721H253.135L257.239 12.9517H263.005L255.373 34.7102C255.006 35.767 254.507 36.6875 253.877 37.4716C253.255 38.2642 252.466 38.8736 251.512 39.2997C250.557 39.7344 249.407 39.9517 248.06 39.9517Z" fill="white"/>
</svg>
